<svg height="512" width="512" xmlns="http://www.w3.org/2000/svg"><path d="M405.102 0H106.898C47.954 0 0 47.954 0 106.898v298.203C0 464.046 47.954 512 106.898 512h298.203C464.046 512 512 464.046 512 405.102V106.898C512 47.954 464.046 0 405.102 0zM106.898 482C64.496 482 30 447.504 30 405.102V204.341h79.52c-8.362 19.351-13.006 40.669-13.006 63.055 0 87.941 71.545 159.486 159.486 159.486s159.486-71.545 159.486-159.486c0-22.385-4.645-43.704-13.006-63.055H482v200.761C482 447.504 447.504 482 405.102 482zM405.102 30C447.504 30 482 64.496 482 106.898v67.442h-96.555c-28.984-40.206-76.207-66.432-129.445-66.432s-100.461 26.226-129.445 66.432H30v-67.442C30 64.496 64.496 30 106.898 30zm-19.616 237.396c0 71.399-58.087 129.486-129.486 129.486s-129.486-58.087-129.486-129.486S184.601 137.909 256 137.909s129.486 58.087 129.486 129.487z"/><path d="M397.296 85h30v30h-30zM164.882 267.396c0 50.242 40.875 91.117 91.118 91.117s91.118-40.875 91.118-91.117c0-50.243-40.875-91.118-91.118-91.118s-91.118 40.874-91.118 91.118zm152.236 0c0 33.7-27.418 61.117-61.118 61.117s-61.118-27.417-61.118-61.117S222.3 206.277 256 206.277s61.118 27.418 61.118 61.119z"/></svg>